<mxfile host="app.diagrams.net" modified="2021-10-25T07:53:40.641Z" agent="5.0 (Windows NT 10.0; Win64; x64) AppleWebKit/537.36 (KHTML, like Gecko) Chrome/94.0.4606.81 Safari/537.36 Edg/94.0.992.50" etag="keXIB-Bf90q8XY43-Mpc" version="15.5.6" type="github">
  <diagram id="6a731a19-8d31-9384-78a2-239565b7b9f0" name="Page-1">
    <mxGraphModel dx="1422" dy="924" grid="1" gridSize="10" guides="1" tooltips="1" connect="1" arrows="1" fold="1" page="1" pageScale="1" pageWidth="1169" pageHeight="827" background="none" math="0" shadow="0">
      <root>
        <mxCell id="0" />
        <mxCell id="1" parent="0" />
        <mxCell id="ApnZGhzGuQDeDVvJWD5N-1780" value="&lt;font&gt;&lt;br&gt;&lt;br&gt;&lt;br&gt;&lt;br&gt;&lt;br&gt;&lt;br&gt;&lt;br&gt;&lt;br&gt;&lt;br&gt;&lt;br&gt;&lt;font size=&quot;1&quot;&gt;&lt;b style=&quot;font-size: 23px&quot;&gt;&lt;br&gt;&lt;br&gt;&lt;br&gt;&lt;br&gt;&lt;font color=&quot;#004c99&quot;&gt;ApiSet Stage1&lt;/font&gt;&lt;/b&gt;&lt;/font&gt;&lt;br&gt;&lt;/font&gt;" style="rounded=1;whiteSpace=wrap;html=1;fillColor=none;" vertex="1" parent="1">
          <mxGeometry x="324" y="60" width="596" height="280" as="geometry" />
        </mxCell>
        <mxCell id="1747" value="" style="edgeStyle=none;rounded=0;jumpStyle=none;html=1;shadow=0;labelBackgroundColor=none;startArrow=none;startFill=0;endArrow=classic;endFill=1;jettySize=auto;orthogonalLoop=1;strokeColor=#2F5B7C;strokeWidth=3;fontFamily=Helvetica;fontSize=16;fontColor=#23445D;spacing=5;entryX=0;entryY=0.5;entryDx=0;entryDy=0;" parent="1" source="1749" target="ApnZGhzGuQDeDVvJWD5N-1780" edge="1">
          <mxGeometry relative="1" as="geometry" />
        </mxCell>
        <mxCell id="1749" value="EASYApi" style="rounded=1;whiteSpace=wrap;html=1;shadow=0;labelBackgroundColor=none;strokeColor=none;strokeWidth=3;fillColor=#2F5B7C;fontFamily=Helvetica;fontSize=16;fontColor=#FFFFFF;align=center;fontStyle=1;spacing=5;arcSize=7;perimeterSpacing=2;" parent="1" vertex="1">
          <mxGeometry x="50" y="322" width="150" height="70" as="geometry" />
        </mxCell>
        <mxCell id="1757" value="" style="edgeStyle=none;rounded=0;jumpStyle=none;html=1;shadow=0;labelBackgroundColor=none;startArrow=none;startFill=0;endArrow=classic;endFill=1;jettySize=auto;orthogonalLoop=1;strokeColor=#1699D3;strokeWidth=3;fontFamily=Helvetica;fontSize=14;fontColor=#FFFFFF;spacing=5;" parent="1" source="1760" target="1763" edge="1">
          <mxGeometry relative="1" as="geometry" />
        </mxCell>
        <mxCell id="1758" value="" style="edgeStyle=none;rounded=0;jumpStyle=none;html=1;shadow=0;labelBackgroundColor=none;startArrow=none;startFill=0;endArrow=classic;endFill=1;jettySize=auto;orthogonalLoop=1;strokeColor=#1699D3;strokeWidth=3;fontFamily=Helvetica;fontSize=14;fontColor=#FFFFFF;spacing=5;" parent="1" source="1760" target="1762" edge="1">
          <mxGeometry relative="1" as="geometry" />
        </mxCell>
        <mxCell id="1759" value="" style="edgeStyle=none;rounded=0;jumpStyle=none;html=1;shadow=0;labelBackgroundColor=none;startArrow=none;startFill=0;endArrow=classic;endFill=1;jettySize=auto;orthogonalLoop=1;strokeColor=#1699D3;strokeWidth=3;fontFamily=Helvetica;fontSize=14;fontColor=#FFFFFF;spacing=5;" parent="1" source="1760" target="1761" edge="1">
          <mxGeometry relative="1" as="geometry" />
        </mxCell>
        <mxCell id="1760" value="Project" style="rounded=1;whiteSpace=wrap;html=1;shadow=0;labelBackgroundColor=none;strokeColor=none;strokeWidth=3;fillColor=#1699d3;fontFamily=Helvetica;fontSize=14;fontColor=#FFFFFF;align=center;spacing=5;fontStyle=1;arcSize=7;perimeterSpacing=2;" parent="1" vertex="1">
          <mxGeometry x="390" y="172.5" width="150" height="60" as="geometry" />
        </mxCell>
        <mxCell id="1761" value="apiA" style="rounded=1;whiteSpace=wrap;html=1;shadow=0;labelBackgroundColor=none;strokeColor=none;strokeWidth=3;fillColor=#64bbe2;fontFamily=Helvetica;fontSize=14;fontColor=#FFFFFF;align=center;spacing=5;arcSize=7;perimeterSpacing=2;" parent="1" vertex="1">
          <mxGeometry x="620" y="78" width="150" height="60" as="geometry" />
        </mxCell>
        <mxCell id="1762" value="apiB" style="rounded=1;whiteSpace=wrap;html=1;shadow=0;labelBackgroundColor=none;strokeColor=none;strokeWidth=3;fillColor=#64bbe2;fontFamily=Helvetica;fontSize=14;fontColor=#FFFFFF;align=center;spacing=5;arcSize=7;perimeterSpacing=2;" parent="1" vertex="1">
          <mxGeometry x="620" y="168" width="150" height="60" as="geometry" />
        </mxCell>
        <mxCell id="1763" value="apiC" style="rounded=1;whiteSpace=wrap;html=1;shadow=0;labelBackgroundColor=none;strokeColor=none;strokeWidth=3;fillColor=#64bbe2;fontFamily=Helvetica;fontSize=14;fontColor=#FFFFFF;align=center;spacing=5;arcSize=7;perimeterSpacing=2;" parent="1" vertex="1">
          <mxGeometry x="620" y="252" width="150" height="60" as="geometry" />
        </mxCell>
        <mxCell id="ApnZGhzGuQDeDVvJWD5N-1781" value="&lt;font&gt;&lt;br&gt;&lt;br&gt;&lt;br&gt;&lt;br&gt;&lt;br&gt;&lt;br&gt;&lt;br&gt;&lt;br&gt;&lt;br&gt;&lt;br&gt;&lt;font size=&quot;1&quot;&gt;&lt;b style=&quot;font-size: 23px&quot;&gt;&lt;br&gt;&lt;br&gt;&lt;br&gt;&lt;br&gt;&lt;font color=&quot;#004c99&quot;&gt;ApiSet Stage2&lt;/font&gt;&lt;/b&gt;&lt;/font&gt;&lt;br&gt;&lt;/font&gt;" style="rounded=1;whiteSpace=wrap;html=1;fillColor=none;" vertex="1" parent="1">
          <mxGeometry x="324" y="362" width="596" height="310" as="geometry" />
        </mxCell>
        <mxCell id="ApnZGhzGuQDeDVvJWD5N-1782" value="" style="edgeStyle=none;rounded=0;jumpStyle=none;html=1;shadow=0;labelBackgroundColor=none;startArrow=none;startFill=0;endArrow=classic;endFill=1;jettySize=auto;orthogonalLoop=1;strokeColor=#1699D3;strokeWidth=3;fontFamily=Helvetica;fontSize=14;fontColor=#FFFFFF;spacing=5;entryX=0;entryY=0.5;entryDx=0;entryDy=0;" edge="1" parent="1" source="ApnZGhzGuQDeDVvJWD5N-1785" target="ApnZGhzGuQDeDVvJWD5N-1788">
          <mxGeometry relative="1" as="geometry" />
        </mxCell>
        <mxCell id="ApnZGhzGuQDeDVvJWD5N-1783" value="" style="edgeStyle=none;rounded=0;jumpStyle=none;html=1;shadow=0;labelBackgroundColor=none;startArrow=none;startFill=0;endArrow=classic;endFill=1;jettySize=auto;orthogonalLoop=1;strokeColor=#1699D3;strokeWidth=3;fontFamily=Helvetica;fontSize=14;fontColor=#FFFFFF;spacing=5;" edge="1" parent="1" source="ApnZGhzGuQDeDVvJWD5N-1785" target="ApnZGhzGuQDeDVvJWD5N-1787">
          <mxGeometry relative="1" as="geometry" />
        </mxCell>
        <mxCell id="ApnZGhzGuQDeDVvJWD5N-1784" value="" style="edgeStyle=none;rounded=0;jumpStyle=none;html=1;shadow=0;labelBackgroundColor=none;startArrow=none;startFill=0;endArrow=classic;endFill=1;jettySize=auto;orthogonalLoop=1;strokeColor=#1699D3;strokeWidth=3;fontFamily=Helvetica;fontSize=14;fontColor=#FFFFFF;spacing=5;entryX=0;entryY=0.5;entryDx=0;entryDy=0;" edge="1" parent="1" source="ApnZGhzGuQDeDVvJWD5N-1785" target="ApnZGhzGuQDeDVvJWD5N-1786">
          <mxGeometry relative="1" as="geometry" />
        </mxCell>
        <mxCell id="ApnZGhzGuQDeDVvJWD5N-1785" value="Project" style="rounded=1;whiteSpace=wrap;html=1;shadow=0;labelBackgroundColor=none;strokeColor=none;strokeWidth=3;fillColor=#1699d3;fontFamily=Helvetica;fontSize=14;fontColor=#FFFFFF;align=center;spacing=5;fontStyle=1;arcSize=7;perimeterSpacing=2;" vertex="1" parent="1">
          <mxGeometry x="390" y="474" width="150" height="60" as="geometry" />
        </mxCell>
        <mxCell id="ApnZGhzGuQDeDVvJWD5N-1786" value="apiA" style="rounded=1;whiteSpace=wrap;html=1;shadow=0;labelBackgroundColor=none;strokeColor=none;strokeWidth=3;fillColor=#64bbe2;fontFamily=Helvetica;fontSize=14;fontColor=#FFFFFF;align=center;spacing=5;arcSize=7;perimeterSpacing=2;" vertex="1" parent="1">
          <mxGeometry x="620" y="412" width="150" height="36" as="geometry" />
        </mxCell>
        <mxCell id="ApnZGhzGuQDeDVvJWD5N-1787" value="apiB" style="rounded=1;whiteSpace=wrap;html=1;shadow=0;labelBackgroundColor=none;strokeColor=none;strokeWidth=3;fillColor=#64bbe2;fontFamily=Helvetica;fontSize=14;fontColor=#FFFFFF;align=center;spacing=5;arcSize=7;perimeterSpacing=2;" vertex="1" parent="1">
          <mxGeometry x="620" y="492" width="150" height="38" as="geometry" />
        </mxCell>
        <mxCell id="ApnZGhzGuQDeDVvJWD5N-1788" value="apiC" style="rounded=1;whiteSpace=wrap;html=1;shadow=0;labelBackgroundColor=none;strokeColor=none;strokeWidth=3;fillColor=#64bbe2;fontFamily=Helvetica;fontSize=14;fontColor=#FFFFFF;align=center;spacing=5;arcSize=7;perimeterSpacing=2;" vertex="1" parent="1">
          <mxGeometry x="620" y="572" width="150" height="42" as="geometry" />
        </mxCell>
        <mxCell id="ApnZGhzGuQDeDVvJWD5N-1789" value="" style="edgeStyle=none;rounded=0;jumpStyle=none;html=1;shadow=0;labelBackgroundColor=none;startArrow=none;startFill=0;endArrow=classic;endFill=1;jettySize=auto;orthogonalLoop=1;strokeColor=#2F5B7C;strokeWidth=3;fontFamily=Helvetica;fontSize=16;fontColor=#23445D;spacing=5;exitX=0.75;exitY=1;exitDx=0;exitDy=0;entryX=0;entryY=0.5;entryDx=0;entryDy=0;" edge="1" parent="1" source="1749" target="ApnZGhzGuQDeDVvJWD5N-1781">
          <mxGeometry relative="1" as="geometry">
            <mxPoint x="211.24242424242493" y="340" as="sourcePoint" />
            <mxPoint x="409.06060606060646" y="244.00000000000023" as="targetPoint" />
          </mxGeometry>
        </mxCell>
        <mxCell id="ApnZGhzGuQDeDVvJWD5N-1790" value="Actor" style="shape=umlActor;verticalLabelPosition=bottom;verticalAlign=top;html=1;outlineConnect=0;fontSize=23;fontColor=#004C99;fillColor=none;" vertex="1" parent="1">
          <mxGeometry x="1040" y="168" width="30" height="60" as="geometry" />
        </mxCell>
        <mxCell id="ApnZGhzGuQDeDVvJWD5N-1793" value="Auth" style="rhombus;whiteSpace=wrap;html=1;fontSize=23;fontColor=#004C99;fillColor=none;" vertex="1" parent="1">
          <mxGeometry x="800" y="470" width="80" height="80" as="geometry" />
        </mxCell>
        <mxCell id="ApnZGhzGuQDeDVvJWD5N-1795" value="" style="edgeStyle=none;rounded=1;jumpStyle=none;html=1;shadow=0;labelBackgroundColor=none;startArrow=none;startFill=0;jettySize=auto;orthogonalLoop=1;strokeColor=#330000;strokeWidth=3;fontFamily=Helvetica;fontSize=14;fontColor=#FFFFFF;spacing=5;fontStyle=1;fillColor=#b0e3e6;entryX=1;entryY=0.5;entryDx=0;entryDy=0;" edge="1" parent="1" source="ApnZGhzGuQDeDVvJWD5N-1790" target="1762">
          <mxGeometry relative="1" as="geometry">
            <mxPoint x="1000" y="494" as="sourcePoint" />
            <mxPoint x="860" y="220" as="targetPoint" />
          </mxGeometry>
        </mxCell>
        <mxCell id="ApnZGhzGuQDeDVvJWD5N-1796" value="Actor" style="shape=umlActor;verticalLabelPosition=bottom;verticalAlign=top;html=1;outlineConnect=0;fontSize=23;fontColor=#004C99;fillColor=none;" vertex="1" parent="1">
          <mxGeometry x="1046" y="480" width="30" height="60" as="geometry" />
        </mxCell>
        <mxCell id="ApnZGhzGuQDeDVvJWD5N-1797" value="" style="edgeStyle=none;rounded=1;jumpStyle=none;html=1;shadow=0;labelBackgroundColor=none;startArrow=none;startFill=0;jettySize=auto;orthogonalLoop=1;strokeColor=#330000;strokeWidth=3;fontFamily=Helvetica;fontSize=14;fontColor=#FFFFFF;spacing=5;fontStyle=1;fillColor=#b0e3e6;entryX=1;entryY=0.5;entryDx=0;entryDy=0;exitX=0.5;exitY=0.5;exitDx=0;exitDy=0;exitPerimeter=0;" edge="1" parent="1" source="ApnZGhzGuQDeDVvJWD5N-1796" target="ApnZGhzGuQDeDVvJWD5N-1793">
          <mxGeometry relative="1" as="geometry">
            <mxPoint x="1050" y="508.8259385665531" as="sourcePoint" />
            <mxPoint x="772.0000000000009" y="450" as="targetPoint" />
          </mxGeometry>
        </mxCell>
        <mxCell id="ApnZGhzGuQDeDVvJWD5N-1798" value="" style="edgeStyle=none;rounded=1;jumpStyle=none;html=1;shadow=0;labelBackgroundColor=none;startArrow=none;startFill=0;jettySize=auto;orthogonalLoop=1;strokeColor=#330000;strokeWidth=3;fontFamily=Helvetica;fontSize=14;fontColor=#FFFFFF;spacing=5;fontStyle=1;fillColor=#b0e3e6;exitX=0;exitY=0.5;exitDx=0;exitDy=0;" edge="1" parent="1" source="ApnZGhzGuQDeDVvJWD5N-1793">
          <mxGeometry relative="1" as="geometry">
            <mxPoint x="994.1809090909089" y="387" as="sourcePoint" />
            <mxPoint x="770" y="510" as="targetPoint" />
          </mxGeometry>
        </mxCell>
        <mxCell id="ApnZGhzGuQDeDVvJWD5N-1799" value="Authorization&lt;br&gt;service" style="ellipse;shape=cloud;whiteSpace=wrap;html=1;fontSize=23;fontColor=#004C99;fillColor=none;" vertex="1" parent="1">
          <mxGeometry x="772" y="706" width="170" height="110" as="geometry" />
        </mxCell>
        <mxCell id="ApnZGhzGuQDeDVvJWD5N-1800" value="" style="endArrow=classic;startArrow=classic;html=1;rounded=0;fontSize=23;fontColor=#004C99;strokeColor=#330000;entryX=0.5;entryY=1;entryDx=0;entryDy=0;exitX=0.4;exitY=0.1;exitDx=0;exitDy=0;exitPerimeter=0;" edge="1" parent="1" source="ApnZGhzGuQDeDVvJWD5N-1799" target="ApnZGhzGuQDeDVvJWD5N-1793">
          <mxGeometry width="50" height="50" relative="1" as="geometry">
            <mxPoint x="940" y="668" as="sourcePoint" />
            <mxPoint x="990" y="618" as="targetPoint" />
          </mxGeometry>
        </mxCell>
        <mxCell id="ApnZGhzGuQDeDVvJWD5N-1807" value="Auth&lt;br&gt;Regist" style="shape=note;whiteSpace=wrap;html=1;backgroundOutline=1;darkOpacity=0.05;fontSize=23;fontColor=#004C99;fillColor=none;" vertex="1" parent="1">
          <mxGeometry x="330" y="706" width="80" height="100" as="geometry" />
        </mxCell>
        <mxCell id="ApnZGhzGuQDeDVvJWD5N-1808" value="" style="edgeStyle=none;rounded=0;jumpStyle=none;html=1;shadow=0;labelBackgroundColor=none;startArrow=none;startFill=0;endArrow=classic;endFill=1;jettySize=auto;orthogonalLoop=1;strokeColor=#2F5B7C;strokeWidth=3;fontFamily=Helvetica;fontSize=16;fontColor=#23445D;spacing=5;exitX=0.5;exitY=1;exitDx=0;exitDy=0;entryX=0;entryY=0.5;entryDx=0;entryDy=0;entryPerimeter=0;" edge="1" parent="1" source="1749" target="ApnZGhzGuQDeDVvJWD5N-1807">
          <mxGeometry relative="1" as="geometry">
            <mxPoint x="173.5000000000009" y="372.0000000000002" as="sourcePoint" />
            <mxPoint x="333.99999999999955" y="495" as="targetPoint" />
          </mxGeometry>
        </mxCell>
        <mxCell id="ApnZGhzGuQDeDVvJWD5N-1809" value="" style="endArrow=none;html=1;rounded=0;fontSize=23;fontColor=#004C99;strokeColor=#330000;exitX=0;exitY=0;exitDx=80;exitDy=65;exitPerimeter=0;entryX=0.16;entryY=0.55;entryDx=0;entryDy=0;entryPerimeter=0;" edge="1" parent="1" source="ApnZGhzGuQDeDVvJWD5N-1807" target="ApnZGhzGuQDeDVvJWD5N-1799">
          <mxGeometry width="50" height="50" relative="1" as="geometry">
            <mxPoint x="280" y="480" as="sourcePoint" />
            <mxPoint x="760" y="790" as="targetPoint" />
          </mxGeometry>
        </mxCell>
        <mxCell id="ApnZGhzGuQDeDVvJWD5N-1811" value="AuthRuleA" style="rounded=1;whiteSpace=wrap;html=1;shadow=0;labelBackgroundColor=none;strokeColor=none;strokeWidth=3;fillColor=#44ADE2;fontFamily=Helvetica;fontSize=14;fontColor=#FFFFFF;align=center;spacing=5;arcSize=7;perimeterSpacing=2;" vertex="1" parent="1">
          <mxGeometry x="620" y="392" width="150" height="20" as="geometry" />
        </mxCell>
        <mxCell id="ApnZGhzGuQDeDVvJWD5N-1812" value="AuthRuleB" style="rounded=1;whiteSpace=wrap;html=1;shadow=0;labelBackgroundColor=none;strokeColor=none;strokeWidth=3;fillColor=#44ADE2;fontFamily=Helvetica;fontSize=14;fontColor=#FFFFFF;align=center;spacing=5;arcSize=7;perimeterSpacing=2;" vertex="1" parent="1">
          <mxGeometry x="620" y="472" width="150" height="20" as="geometry" />
        </mxCell>
        <mxCell id="ApnZGhzGuQDeDVvJWD5N-1813" value="AuthRuleC" style="rounded=1;whiteSpace=wrap;html=1;shadow=0;labelBackgroundColor=none;strokeColor=none;strokeWidth=3;fillColor=#44ADE2;fontFamily=Helvetica;fontSize=14;fontColor=#FFFFFF;align=center;spacing=5;arcSize=7;perimeterSpacing=2;" vertex="1" parent="1">
          <mxGeometry x="620" y="552" width="150" height="20" as="geometry" />
        </mxCell>
      </root>
    </mxGraphModel>
  </diagram>
</mxfile>
